# xmcd
#
# Track frame offsets:
#	150
#	22590
#	42150
#	62977
#	82640
#	103450
#	124062
#	162240
#	181335
#	197327
#	217937
#
# Disc length: 3161 seconds
#
# Revision: 1
# Processed by: cddbd v1.5.2PL0 Copyright (c) Steve Scherf et al.
# Submitted via: audiograbber 1.83.01
#
DISCID=840c570b
DTITLE=George Thorogood - The Baddest of
DYEAR=1900
DGENRE=
TTITLE0=Bad To the Bone
TTITLE1=Move it on over
TTITLE2=You talk too much
TTITLE3=Who do you love
TTITLE4=Gear Jammer
TTITLE5=i drink alone
TTITLE6=one Bourbon, one Scotch, one Beer
TTITLE7=if you don't start drinkin' (i'm gonna leave)
TTITLE8=treat her right
TTITLE9=long gone
TTITLE10=Louie to Frisco
EXTD=
EXTT0=
EXTT1=
EXTT2=
EXTT3=
EXTT4=
EXTT5=
EXTT6=
EXTT7=
EXTT8=
EXTT9=
EXTT10=
PLAYORDER=
